<svg height="200pt" preserveAspectRatio="xMidYMid meet" viewBox="0 0 200 200" width="200pt" xmlns="http://www.w3.org/2000/svg"><g transform="matrix(.1 0 0 -.1 0 200)"><path d="m0 1000v-1000h1000 1000v1000 1000h-1000-1000zm1336 384c131-235 241-431 242-435 2-5-177-9-402-9-223 0-406 3-406 6 0 4 18 40 41 80l40 74h245c134 0 244 2 244 4s-88 154-195 339c-107 184-198 342-201 351-5 14 5 16 73 16h79zm-226 81c95-165 180-310 188-322l14-23-78 1h-79l-118 200c-65 111-120 199-122 197s-81-138-175-303c-95-165-191-331-213-369l-40-70-38 76-38 76 251 432c200 343 254 428 263 418 7-7 90-148 185-313zm-151-48 24-44-125-224-125-224 424-3c277-1 423-6 423-12s-16-42-35-80l-35-70h-501c-466 0-501 1-495 17 4 9 95 171 203 360 136 239 199 340 207 334 6-5 22-29 35-54zm-565-719c3-18 10-62 16-98s13-77 16-92c5-23 2-28-15-28-11 0-22 9-26 20-4 13-15 20-31 20-17 0-24-5-24-20 0-13-7-20-20-20-16 0-19 5-15 23 5 22 35 212 35 222 0 3 13 5 30 5 25 0 30-4 34-32zm118-25 13-58 5 55c4 42 9 56 23 58 15 3 17-8 17-123 0-125 0-126-22-123-19 2-25 16-43 83l-20 80-3-82c-2-65-6-83-17-83-12 0-15 22-15 125v125h24c22 0 26-7 38-57zm182 41c9-8 16-29 16-45 0-22-5-29-20-29s-20 7-20 26-5 25-17 22c-15-3-19-16-21-77-2-45 2-78 9-87 20-25 32-4 25 47-6 47-6 49 19 49 23 0 25-3 25-51 0-69-12-89-55-89-51 0-65 27-65 125 0 94 15 125 60 125 16 0 36-7 44-16zm146-4c0-16-7-20-36-20-34 0-35-1-32-32 2-28 8-34 31-36 15-2 27-9 27-17s-12-15-27-17c-23-2-29-8-31-35-3-32-2-33 32-33 29 0 36-4 36-20 0-18-7-20-55-20h-55v118c0 65 3 122 7 125 3 4 28 7 55 7 41 0 48-3 48-20zm60-85v-105h35c28 0 35-4 35-20 0-18-7-20-55-20h-55v118c0 120 2 132 27 132 10 0 13-24 13-105zm181 95c14-8 19-21 19-50 0-21-5-42-10-45-7-4-5-14 5-28 19-28 19-67-1-95-12-18-25-22-65-22h-49v118c0 65 3 122 7 125 10 11 72 8 94-3zm147-2c18-18 16-212-2-227-25-21-79-9-94 19-17 33-12 181 7 203 16 20 71 23 89 5zm152-8c0-13-7-20-20-20-19 0-20-7-20-105s-1-105-20-105-20 7-20 105-1 105-20 105c-13 0-20 7-20 20 0 18 7 20 60 20s60-2 60-20zm50-105c0-118-1-125-20-125s-20 7-20 118c0 120 2 132 27 132 10 0 13-28 13-125zm128 112c19-22 19-71 0-75-11-2-18 4-20 20-2 12-11 24-20 26-16 3-18-6-18-81 0-46 3-87 7-90 10-11 33 13 33 34 0 13 7 19 21 19 19 0 21-4 15-32-9-44-23-58-60-58-50 0-56 14-56 121 0 75 4 101 16 113 19 19 67 21 82 3zm134-4c25-22 24-53-2-53-12 0-20 7-20 16 0 17-31 16-37-2-2-7 14-33 37-58 43-51 52-93 24-120-23-24-70-20-88 6-22 32-20 58 4 58 13 0 20-7 20-20s7-20 20-20c30 0 24 28-15 71-43 48-52 81-31 114 19 29 60 33 88 8zm-1042-368c0-78-3-95-15-95s-15 14-15 70c0 40-4 70-10 70-25 0 7 49 33 50 4 0 7-43 7-95zm253 78c3-10 6-51 6-90 0-63-2-74-20-83-26-14-69 11-69 40 0 27 26 26 33-1s27-15 27 17c0 15-6 24-15 24-8 0-15 6-15 14s7 16 15 20c8 3 15 15 15 26s-7 20-15 20-15-7-15-15-7-15-15-15c-18 0-20 31-3 48 19 19 66 15 71-5zm245 5c10-13 14-128 6-159-11-41-84-27-84 16 0 31 25 33 33 4 3-12 10-18 16-14 16 9 13 45-4 51-8 4-15 12-15 19s7 15 15 19c8 3 15 15 15 26s-7 20-15 20-15-7-15-15-7-15-15-15c-18 0-20 31-3 48 16 16 53 15 66 0zm252-7c5-11 10-47 10-80 0-48-4-65-20-81-11-11-24-20-30-20-13 0-50 37-50 50 0 16 22 12 36-7 12-16 15-16 24-3 16 25 12 42-9 35-26-8-51 20-51 56 0 46 17 69 50 69 19 0 33-7 40-19z"/><path d="m350 629c0-13-3-34-6-46-5-18-2-23 13-23 18 0 20 4 13 40-9 48-20 64-20 29z"/><path d="m1020 660c0-23 4-30 20-30s20 7 20 30-4 30-20 30-20-7-20-30z"/><path d="m1020 555c0-28 4-35 19-35 26 0 34 15 27 46-4 15-14 24-26 24-16 0-20-7-20-35z"/><path d="m1167 683c-13-13-8-150 6-162 22-18 27-2 27 86 0 62-3 83-13 83-8 0-17-3-20-7z"/><path d="m1345 399c-9-14 3-59 15-59 5 0 12 11 16 24 6 26-1 46-16 46-5 0-12-5-15-11z"/></g></svg>